<svg xmlns="http://www.w3.org/2000/svg" width="480" height="480" fill="none"><path fill="#4285F4" fill-rule="evenodd" d="m187.027 106.317-.064-.017-.069-.019-8.892-2.382c-32.371-8.674-65.604 9.259-76.48 40.393L74.077 196.95c-12.189 23.385.412 52.043 25.884 58.868a41.223 41.223 0 0 0 35.548-6.95l24.075-18.224 90.016 24.119 11.738 27.821a41.22 41.22 0 0 0 27.31 23.792c25.472 6.825 50.713-11.692 51.85-38.038l2.561-59.324c6.15-32.402-13.664-64.55-46.037-73.224l-8.892-2.383-.069-.018-.064-.017-100.97-27.055Z" clip-rule="evenodd"/><path fill="#4285F4" d="M100.104 148.866c9.091-33.927 43.963-54.06 77.89-44.97l119.019 31.892c33.927 9.09 54.061 43.963 44.97 77.889-9.091 33.927-43.963 54.061-77.89 44.97l-119.019-31.891c-33.927-9.091-54.06-43.963-44.97-77.89Z"/><rect width="66.285" height="66.285" x="239.882" y="146.011" fill="#C6FF00" rx="33.143" transform="rotate(15 239.882 146.011)"/><rect width="15.933" height="15.932" x="261.441" y="161.586" fill="#4285F4" rx="7.966" transform="rotate(15 261.441 161.586)"/><rect width="15.932" height="15.933" x="288.1" y="185.217" fill="#4285F4" rx="7.966" transform="rotate(105 288.1 185.217)"/><rect width="15.933" height="15.932" x="253.195" y="192.363" fill="#4285F4" rx="7.966" transform="rotate(15 253.195 192.363)"/><rect width="15.932" height="15.933" x="257.32" y="176.969" fill="#4285F4" rx="7.966" transform="rotate(105 257.32 176.969)"/><rect width="24.55" height="9.82" x="201.786" y="209.713" fill="#fff" rx="4.91" transform="rotate(15 201.786 209.713)"/><rect width="66.285" height="66.285" x="158.494" y="124.66" fill="#E8F0FE" rx="33.143" transform="rotate(15 158.494 124.66)"/><rect width="12.275" height="41.735" x="181.4" y="143.506" fill="#4285F4" rx="6.138" transform="rotate(15 181.4 143.506)"/><rect width="12.275" height="41.735" x="203.675" y="164.724" fill="#4285F4" rx="6.138" transform="rotate(105 203.675 164.724)"/><path stroke="#174EA6" stroke-linecap="round" stroke-width="4" d="m158.148 230.656-13.285-3.559c-8.439-2.098-28.437-12.039-37.481-28.701-12.163-22.408-9.54-40.854-7.577-48.184M250.809 254.988l14.115 3.783c8.307 2.388 29.012 5.283 46.653-4.679 23.152-13.076 28.544-35.069 29.894-40.108"/><path fill="#34A853" fill-rule="evenodd" d="M228.643 229h-9.344c-33.513 0-60.972 25.923-63.419 58.811l-12.882 57.968c-5.72 25.743 13.868 50.162 40.239 50.162a41.224 41.224 0 0 0 32.538-15.913l18.537-23.835h93.192l18.538 23.835a41.223 41.223 0 0 0 32.538 15.913c26.37 0 45.959-24.419 40.238-50.162l-12.881-57.965C403.492 254.924 376.032 229 342.518 229H228.643Z" clip-rule="evenodd"/><path fill="#34A853" d="M155.694 292.597c0-35.124 28.473-63.597 63.596-63.597h123.219c35.123 0 63.596 28.473 63.596 63.597 0 35.123-28.473 63.596-63.596 63.596H219.29c-35.123 0-63.596-28.473-63.596-63.596Z"/><rect width="66.285" height="66.285" x="289.97" y="253.662" fill="#C6FF00" rx="33.143"/><rect width="15.933" height="15.932" x="314.826" y="263.126" fill="#34A853" rx="7.966"/><rect width="15.932" height="15.933" x="346.693" y="279.052" fill="#34A853" rx="7.966" transform="rotate(90 346.693 279.052)"/><rect width="15.933" height="15.932" x="314.826" y="294.989" fill="#34A853" rx="7.966"/><rect width="15.932" height="15.933" x="314.826" y="279.052" fill="#34A853" rx="7.966" transform="rotate(90 314.826 279.052)"/><rect width="24.55" height="9.82" x="269.66" y="325.053" fill="#fff" rx="4.91"/><rect width="66.285" height="66.285" x="205.829" y="254.104" fill="#E6F4EA" rx="33.143"/><rect width="12.275" height="41.735" x="232.833" y="266.378" fill="#34A853" rx="6.138"/><rect width="12.275" height="41.735" x="259.84" y="281.109" fill="#34A853" rx="6.138" transform="rotate(90 259.84 281.109)"/><path stroke="#0D652D" stroke-linecap="round" stroke-width="4" d="M232.929 356.577h-13.754c-8.695.158-30.584-4.268-43.632-18.022-17.548-18.496-19.789-36.992-19.789-44.581M328.73 356.098h14.613c8.642.157 29.391-2.405 43.852-16.594 18.98-18.623 18.495-41.261 18.495-46.478"/><rect width="9.412" height="32" x="108.297" y="52" fill="#C6FF00" rx="4.706"/><rect width="9.412" height="32" x="129" y="63.294" fill="#C6FF00" rx="4.706" transform="rotate(90 129 63.294)"/><rect width="9.412" height="32" x="405.297" y="178" fill="#C6FF00" rx="4.706"/><rect width="9.412" height="32" x="426" y="189.294" fill="#C6FF00" rx="4.706" transform="rotate(90 426 189.294)"/><rect width="9.412" height="32" x="71.296" y="287" fill="#C6FF00" rx="4.706"/><rect width="9.412" height="32" x="92" y="298.294" fill="#C6FF00" rx="4.706" transform="rotate(90 92 298.294)"/><circle cx="265" cy="418" r="13" stroke="#AECBFA" stroke-width="6"/><circle cx="276" cy="79" r="13" stroke="#AECBFA" stroke-width="6"/></svg>